<svg width="24" height="24" viewBox="0 0 24 24" fill="none" xmlns="http://www.w3.org/2000/svg">
<path fill-rule="evenodd" clip-rule="evenodd" d="M12.194 13.4975L18.6703 19.8983C19.0631 20.2865 19.7 20.2865 20.0928 19.8983C20.4856 19.5101 20.4856 18.8806 20.0928 18.4924L13.62 12.0951L20.0928 5.69771C20.4856 5.30949 20.4856 4.68004 20.0928 4.29182C19.7 3.90359 19.0631 3.90359 18.6703 4.29182L12.194 10.6926L5.71709 4.29117C5.32429 3.90294 4.68742 3.90294 4.29461 4.29117C3.9018 4.6794 3.9018 5.30884 4.29461 5.69707L10.768 12.095L4.29461 18.493C3.9018 18.8812 3.9018 19.5106 4.29461 19.8989C4.68741 20.2871 5.32428 20.2871 5.71709 19.8989L12.194 13.4975Z" fill="#fff"/>
</svg>
