<svg width="13" height="15" viewBox="0 0 13 15" fill="none" xmlns="http://www.w3.org/2000/svg">
<path d="M5.16797 8.66309V4.57617C4.55859 4.92773 4.11621 5.42285 3.84082 6.06152C3.57129 6.7002 3.43652 7.50293 3.43652 8.46973C3.43652 9.36035 3.58887 10.1455 3.89355 10.8252C4.19824 11.499 4.62891 12.0234 5.18555 12.3984C5.74805 12.7676 6.40137 12.9521 7.14551 12.9521H11.5049V15H1.54688V13.0225H3.22559V12.9521C2.73926 12.6709 2.32031 12.2812 1.96875 11.7832C1.61719 11.2793 1.35059 10.7109 1.16895 10.0781C0.987305 9.44531 0.896484 8.79492 0.896484 8.12695C0.896484 7.25977 1.07227 6.43359 1.42383 5.64844C1.77539 4.86328 2.27344 4.18945 2.91797 3.62695C3.5625 3.05859 4.3125 2.66016 5.16797 2.43164V0.454102H6.23145V2.23828C6.36035 2.22656 6.5625 2.2207 6.83789 2.2207C6.96094 2.2207 7.05469 2.22363 7.11914 2.22949L7.40039 2.23828V0.454102H8.46387V2.43164C9.34863 2.66016 10.1162 3.07324 10.7666 3.6709C11.4229 4.2627 11.9238 4.98926 12.2695 5.85059C12.6211 6.70605 12.7969 7.64355 12.7969 8.66309H10.2217C10.2217 7.59668 10.084 6.73535 9.80859 6.0791C9.53906 5.42285 9.09082 4.92187 8.46387 4.57617V8.66309H7.40039V4.25098C7.20117 4.21582 7.00195 4.19824 6.80273 4.19824C6.59766 4.19824 6.40723 4.21582 6.23145 4.25098V8.66309H5.16797Z" fill="#7da966"/>
</svg>
